<svg data-v-fde0c5aa="" xmlns="http://www.w3.org/2000/svg" viewBox="0 0 300 300" class="font"><!----><defs data-v-fde0c5aa=""><!----></defs><rect data-v-fde0c5aa="" fill="#2B282C" x="0" y="0" width="300px" height="300px" class="logo-background-square"></rect><defs data-v-fde0c5aa=""><!----></defs><g data-v-fde0c5aa="" id="2bca548c-f699-4f1a-8cff-a51ff24f3145" fill="#746657" transform="matrix(2.733938072109771,0,0,2.733938072109771,36.281844182821416,126.66583897170895)"><path d="M10.35 3.92L9.53 3.92L5.87 13.12L2.23 3.92L1.36 3.92L1.36 13.58L1.89 13.58L1.89 8.13C1.89 6.92 1.89 5.56 1.86 4.38C2.30 5.54 2.84 6.93 3.32 8.12L5.52 13.58L6.19 13.58L8.39 8.13C8.88 6.93 9.41 5.54 9.84 4.37C9.81 5.54 9.83 6.92 9.83 8.13L9.83 13.58L10.35 13.58ZM18.24 9.69C18.24 7.77 17.22 6.01 15.13 6.01C13.26 6.01 11.79 7.53 11.79 9.87C11.79 12.46 13.24 13.78 15.01 13.78C16.44 13.78 17.72 12.95 18.13 11.28L17.58 11.28C17.22 12.68 16.16 13.33 15.04 13.33C13.75 13.33 12.43 12.43 12.35 10.04L18.23 10.04C18.24 9.86 18.24 9.76 18.24 9.69ZM15.11 6.45C16.35 6.45 17.61 7.29 17.70 9.58L12.35 9.58C12.43 7.46 13.82 6.45 15.11 6.45ZM20.26 3.29L19.73 3.29L19.73 11.80C19.73 12.29 19.73 12.54 19.74 12.82C19.77 13.47 20.10 13.65 20.57 13.65C20.73 13.65 20.92 13.65 21.08 13.61L21.08 13.19C20.48 13.26 20.30 13.15 20.27 12.68C20.26 12.47 20.26 12.21 20.26 11.79ZM22.72 4.26C22.50 4.26 22.32 4.44 22.32 4.66C22.32 4.89 22.50 5.07 22.72 5.07C22.95 5.07 23.13 4.89 23.13 4.66C23.13 4.44 22.95 4.26 22.72 4.26ZM22.99 13.58L22.99 6.20L22.46 6.20L22.46 13.58ZM27.06 6.01C25.68 6.01 24.71 6.85 24.71 8.04C24.71 9.30 25.73 9.79 26.94 10.08C28.57 10.47 29.15 10.89 29.15 11.83C29.15 12.81 28.25 13.33 27.19 13.33C26.05 13.33 25.14 12.82 24.92 11.40L24.37 11.40C24.56 13.08 25.73 13.78 27.15 13.78C28.62 13.78 29.69 13.03 29.69 11.80C29.69 10.56 28.85 10.00 27.16 9.60C26.03 9.34 25.26 8.96 25.26 7.99C25.26 7.03 26.05 6.45 27.03 6.45C28.15 6.45 28.80 7.04 29.08 8.23L29.62 8.23C29.43 6.97 28.63 6.01 27.06 6.01ZM33.24 6.01C31.85 6.01 30.88 6.85 30.88 8.04C30.88 9.30 31.91 9.79 33.11 10.08C34.75 10.47 35.32 10.89 35.32 11.83C35.32 12.81 34.43 13.33 33.36 13.33C32.23 13.33 31.32 12.82 31.09 11.40L30.55 11.40C30.73 13.08 31.91 13.78 33.32 13.78C34.79 13.78 35.87 13.03 35.87 11.80C35.87 10.56 35.03 10.00 33.33 9.60C32.20 9.34 31.43 8.96 31.43 7.99C31.43 7.03 32.23 6.45 33.21 6.45C34.33 6.45 34.97 7.04 35.25 8.23L35.80 8.23C35.60 6.97 34.80 6.01 33.24 6.01ZM41.97 13.58L42.52 13.58C42.43 12.64 42.39 12.10 42.39 11.33L42.39 8.92C42.39 8.55 42.39 8.32 42.36 7.95C42.25 6.72 41.47 6.01 39.94 6.01C38.44 6.01 37.37 6.97 37.27 8.29L37.81 8.29C37.97 7 38.92 6.45 39.94 6.45C41.10 6.45 41.75 7.01 41.83 8.01C41.86 8.32 41.86 8.61 41.86 8.95L41.86 9.28L41.38 9.28C38.93 9.28 36.97 10.05 36.97 11.76C36.97 13.09 37.90 13.78 39.28 13.78C40.21 13.78 41.02 13.43 41.52 12.71L41.87 11.97ZM39.41 13.33C38.18 13.33 37.56 12.73 37.56 11.73C37.56 10.15 39.73 9.59 41.86 9.73L41.86 10.68C41.86 12.11 40.88 13.33 39.41 13.33ZM51.74 8.47C52.85 8.23 53.54 7.45 53.54 6.26C53.54 4.90 52.60 4.07 51.11 3.95C50.64 3.92 50.39 3.92 49.98 3.92L47.45 3.92L47.45 13.58L50.25 13.58C50.61 13.58 50.88 13.58 51.27 13.54C52.67 13.43 53.90 12.54 53.90 10.95C53.90 9.62 53.17 8.74 51.74 8.47ZM47.98 4.38L50.01 4.38C50.34 4.38 50.58 4.38 50.89 4.40C51.94 4.45 52.96 4.94 52.96 6.33C52.96 7.69 51.97 8.19 50.96 8.27C50.65 8.29 50.41 8.30 50.19 8.30L47.98 8.30ZM51.10 13.09C50.92 13.10 50.68 13.12 50.46 13.12L47.98 13.12L47.98 8.76L50.37 8.76C50.60 8.76 50.79 8.76 51.11 8.79C52.75 8.88 53.33 9.86 53.33 10.99C53.33 12.39 52.22 13.01 51.10 13.09ZM60.06 13.58L60.61 13.58C60.52 12.64 60.48 12.10 60.48 11.33L60.48 8.92C60.48 8.55 60.48 8.32 60.45 7.95C60.34 6.72 59.56 6.01 58.03 6.01C56.53 6.01 55.45 6.97 55.36 8.29L55.90 8.29C56.06 7 57.01 6.45 58.03 6.45C59.19 6.45 59.84 7.01 59.92 8.01C59.95 8.32 59.95 8.61 59.95 8.95L59.95 9.28L59.47 9.28C57.02 9.28 55.06 10.05 55.06 11.76C55.06 13.09 55.99 13.78 57.37 13.78C58.30 13.78 59.11 13.43 59.61 12.71L59.96 11.97ZM57.50 13.33C56.27 13.33 55.65 12.73 55.65 11.73C55.65 10.15 57.82 9.59 59.95 9.73L59.95 10.68C59.95 12.11 58.97 13.33 57.50 13.33ZM62.99 3.29L62.45 3.29L62.45 11.80C62.45 12.29 62.45 12.54 62.47 12.82C62.50 13.47 62.83 13.65 63.29 13.65C63.46 13.65 63.64 13.65 63.81 13.61L63.81 13.19C63.21 13.26 63.03 13.15 63.00 12.68C62.99 12.47 62.99 12.21 62.99 11.79ZM65.45 4.26C65.23 4.26 65.04 4.44 65.04 4.66C65.04 4.89 65.23 5.07 65.45 5.07C65.67 5.07 65.86 4.89 65.86 4.66C65.86 4.44 65.67 4.26 65.45 4.26ZM65.72 13.58L65.72 6.20L65.18 6.20L65.18 13.58ZM73.39 8.25C73.25 6.85 72.35 6.01 70.83 6.01C69.96 6.01 69.17 6.31 68.61 7.01L68.28 7.78L68.28 6.20L67.75 6.20L67.75 13.58L68.28 13.58L68.28 9.49C68.28 7.38 69.47 6.47 70.77 6.47C72.10 6.47 72.73 7.25 72.86 8.40C72.90 8.78 72.91 9.10 72.91 9.59L72.91 13.58L73.44 13.58L73.44 9.46C73.44 8.86 73.43 8.62 73.39 8.25ZM78.32 6.01C76.13 6.01 74.80 7.62 74.80 9.90C74.80 12.17 76.13 13.78 78.32 13.78C80.50 13.78 81.83 12.17 81.83 9.90C81.83 7.62 80.50 6.01 78.32 6.01ZM78.32 13.33C76.75 13.33 75.39 12.18 75.39 9.90C75.39 7.60 76.75 6.45 78.32 6.45C79.88 6.45 81.26 7.60 81.26 9.90C81.26 12.18 79.88 13.33 78.32 13.33Z"></path></g><!----><!----></svg>